<svg width="369" height="93" viewBox="0 0 369 93" fill="none" xmlns="http://www.w3.org/2000/svg">
<path d="M48.6118 74.0752L45.1885 88.4533L84.2147 88.4533L88.3227 88.4533C88.3227 88.4533 88.3227 87.7686 90.0344 81.2643C91.7461 74.7599 90.3767 74.0752 84.7292 74.0752C79.0817 74.0752 48.6118 74.0752 48.6118 74.0752Z" fill="#0B2C92"/>
<path d="M8.90072 15.8779C8.90072 15.8779 14.3781 15.8779 18.4861 15.8779C22.5941 15.8779 23.2788 15.8779 24.4525 19.986C25.6262 24.094 39.7109 73.3903 39.7109 73.3903H25.3328C25.3328 73.3903 10.6124 23.4093 10.2701 22.04C9.92773 20.6706 9.58539 19.986 8.21605 19.3013C6.84671 18.6166 0 17.9319 0 17.9319V15.8779H8.90072Z" fill="#0B2C92"/>
<g filter="url(#filter0_d_4_126)">
<path d="M61.5 4H54.311C48.4913 4 47.1219 4.68467 45.7135 9.47737L29.4409 73.3904H43.819L61.5 4Z" fill="#1432C8"/>
</g>
<g filter="url(#filter1_d_4_126)">
<path d="M60.2514 26.1475H67.4405C73.9449 26.1475 75.3142 27.5168 73.9449 32.9942L58.1975 88.4524H43.8193L60.2514 26.1475Z" fill="#1432C8"/>
</g>
<path d="M237.422 20.6722V24.6402C237.294 26.3682 237.038 28.0322 236.654 29.5042H238.254C239.15 29.5042 240.046 29.5042 241.07 29.4402C241.966 29.4402 242.99 29.3762 244.078 29.2482V20.1602H255.278V44.2882H244.078V37.5682C243.694 37.6962 243.182 37.8242 242.542 37.8242C241.838 37.9522 241.07 38.0162 240.302 38.0162C239.47 38.0802 238.638 38.0802 237.87 38.0802H235.566L231.278 38.1442C230.702 38.6562 230.062 39.1042 229.422 39.5522C224.366 42.8802 217.134 44.7362 207.662 45.2482L205.038 38.4002C210.542 38.0802 214.958 37.3762 218.286 36.2882H206.83V30.0162H226.542C226.734 29.5682 226.862 29.0562 226.99 28.5442H205.678V20.6722H237.422ZM208.878 55.2962H244.462V53.5042H209.198V46.2082H255.342V62.2722H219.758V64.2562H255.982V71.5522H208.878V55.2962Z" fill="#1432C8"/>
<path d="M181.392 30.5922H163.088V39.8722H181.072V49.7922H163.088V59.0082H174.032C175.888 59.0082 177.616 58.9442 179.28 58.7522C180.816 58.6242 182.032 58.4322 182.864 58.1122V67.6482C181.968 68.1602 180.688 68.4802 179.024 68.6082C177.296 68.8642 175.376 68.9282 173.2 68.9282H152.208V20.6722H181.392V30.5922ZM187.408 71.6802V20.1602H199.248V71.6802H187.408Z" fill="#1432C8"/>
<path d="M116.104 20.6722H126.664V39.1042H133.64V20.1602H144.84V71.7442H133.64V48.8322C132.424 49.0242 130.824 49.1522 128.776 49.2162C128.072 49.2802 127.368 49.2802 126.664 49.3442V68.9282C126.664 68.9282 105 68.9282 102 68.9282C99 68.9282 96.52 67 96.52 63C96.52 59 96.52 20.6722 96.52 20.6722H107.08V35.3282H116.104V20.6722ZM107.08 44.9282V59.3282H116.104V44.9282H107.08Z" fill="#1432C8"/>
<path d="M332.048 20.3522V38.5282H342.672C344.464 38.5282 346.192 38.4642 347.984 38.2082C349.712 38.0802 351.248 37.7602 352.592 37.3762V46.1442C351.184 46.7842 349.584 47.1682 347.856 47.4242C346.064 47.6802 344.272 47.8082 342.352 47.8082H320.208V20.3522H332.048ZM356.816 49.0882V20.1602H367.952V49.0882H356.816ZM346.192 65.0242C348.24 65.0242 349.904 64.9602 351.248 64.8322C352.528 64.7042 353.552 64.5122 354.32 64.2562C355.088 64.0002 355.6 63.6802 355.92 63.2962C356.176 62.9122 356.304 62.4642 356.304 61.9522C356.304 61.5042 356.176 61.0562 355.92 60.6722C355.6 60.2882 355.088 59.9682 354.32 59.7122C353.552 59.4562 352.528 59.2642 351.248 59.0722C349.904 58.9442 348.24 58.8802 346.192 58.8802C344.08 58.8802 342.352 58.9442 341.072 59.0722C339.728 59.2642 338.704 59.4562 338 59.7122C337.232 59.9682 336.72 60.2882 336.464 60.6722C336.208 61.0562 336.08 61.5042 336.08 61.9522C336.08 62.4642 336.208 62.9122 336.464 63.2962C336.72 63.6802 337.232 64.0002 338 64.2562C338.704 64.5122 339.728 64.7042 341.072 64.8322C342.352 64.9602 344.08 65.0242 346.192 65.0242ZM346.192 73.6002C341.776 73.6002 338.128 73.2802 335.248 72.7682C332.304 72.1922 329.936 71.4242 328.272 70.4002C326.48 69.3762 325.264 68.1602 324.624 66.6882C323.856 65.2802 323.536 63.7442 323.536 61.9522C323.536 60.3522 323.856 58.8162 324.624 57.4082C325.328 56.0002 326.544 54.7842 328.336 53.6962C330.064 52.6722 332.368 51.8402 335.312 51.2002C338.192 50.6242 341.84 50.3042 346.192 50.3042C350.48 50.3042 354.064 50.6242 357.008 51.2002C359.888 51.8402 362.192 52.6722 363.984 53.6962C365.712 54.7842 366.992 56.0002 367.76 57.4082C368.464 58.8162 368.848 60.3522 368.848 61.9522C368.848 63.7442 368.464 65.2802 367.76 66.6882C366.992 68.1602 365.776 69.3762 364.048 70.4002C362.32 71.4242 360.016 72.1922 357.136 72.7682C354.192 73.2802 350.544 73.6002 346.192 73.6002Z" fill="#0B2C92"/>
<path d="M264.52 39.6162H280.584V30.5922H264.84V20.6722H291.464V49.2162H275.4V59.0082H294.536V68.9282C294.536 68.9282 271 68.9282 268.5 68.9282C266 68.9282 264.52 67 264.52 65C264.52 63 264.52 39.6162 264.52 39.6162ZM301.64 48.6402C301 48.8322 300.104 48.9602 298.952 48.9602C297.736 49.0242 296.456 49.0242 295.176 49.0242H294.28V38.7842H301.64V20.1602H312.84V71.7442H301.64V48.6402Z" fill="#0B2C92"/>
<defs>
<filter id="filter0_d_4_126" x="24.4409" y="0" width="40.0591" height="77.3904" filterUnits="userSpaceOnUse" color-interpolation-filters="sRGB">
<feFlood flood-opacity="0" result="BackgroundImageFix"/>
<feColorMatrix in="SourceAlpha" type="matrix" values="0 0 0 0 0 0 0 0 0 0 0 0 0 0 0 0 0 0 127 0" result="hardAlpha"/>
<feOffset dx="-1"/>
<feGaussianBlur stdDeviation="2"/>
<feComposite in2="hardAlpha" operator="out"/>
<feColorMatrix type="matrix" values="0 0 0 0 0 0 0 0 0 0 0 0 0 0 0 0 0 0 0.25 0"/>
<feBlend mode="normal" in2="BackgroundImageFix" result="effect1_dropShadow_4_126"/>
<feBlend mode="normal" in="SourceGraphic" in2="effect1_dropShadow_4_126" result="shape"/>
</filter>
<filter id="filter1_d_4_126" x="40.8193" y="22.1475" width="38.6064" height="70.3049" filterUnits="userSpaceOnUse" color-interpolation-filters="sRGB">
<feFlood flood-opacity="0" result="BackgroundImageFix"/>
<feColorMatrix in="SourceAlpha" type="matrix" values="0 0 0 0 0 0 0 0 0 0 0 0 0 0 0 0 0 0 127 0" result="hardAlpha"/>
<feOffset dx="1"/>
<feGaussianBlur stdDeviation="2"/>
<feComposite in2="hardAlpha" operator="out"/>
<feColorMatrix type="matrix" values="0 0 0 0 0 0 0 0 0 0 0 0 0 0 0 0 0 0 0.25 0"/>
<feBlend mode="normal" in2="BackgroundImageFix" result="effect1_dropShadow_4_126"/>
<feBlend mode="normal" in="SourceGraphic" in2="effect1_dropShadow_4_126" result="shape"/>
</filter>
</defs>
</svg>
